<?xml version="1.0" encoding="UTF-8" standalone="no"?>
<svg width="50px" height="50px" viewBox="0 0 50 50" version="1.1" xmlns="http://www.w3.org/2000/svg" xmlns:xlink="http://www.w3.org/1999/xlink">
    <!-- Generator: Sketch 39.1 (31720) - http://www.bohemiancoding.com/sketch -->
    <title>GAME</title>
    <desc>Created with Sketch.</desc>
    <defs></defs>
    <g id="Page-1" stroke="none" stroke-width="1" fill="none" fill-rule="evenodd">
        <g id="GAME">
            <g id="Combined-Shape">
                <path d="M49.9803735,23.9999923 C49.4555729,10.6536843 38.4722746,0 25,0 C11.1898454,0 0,11.1928813 0,25 C0,38.8101546 11.1928813,50 25,50 L50,50 L50,24 L49.9803738,24 Z" fill="#000000"></path>
                <path d="M39.5612121,21.6666667 C37.9694216,15.370859 32.266002,10.8333333 25.625,10.8333333 C17.6859067,10.8333333 11.25,17.2692401 11.25,25.2083333 C11.25,33.1474266 17.6859067,39.5833333 25.625,39.5833333 C31.7023424,39.5833333 37.0610511,35.777117 39.1227632,30.1664521 L43.8159356,31.8910196 C41.0367891,39.4540831 33.815403,44.5833333 25.625,44.5833333 C14.924483,44.5833333 6.25,35.9088504 6.25,25.2083333 C6.25,14.5078163 14.924483,5.83333333 25.625,5.83333333 C34.9670402,5.83333333 42.929345,12.4917881 44.5833333,21.5641432 L44.605951,21.6666667 L39.5612121,21.6666667 Z" fill="#FFFFFF"></path>
                <path d="M45,30.5 L45,28 L28,28 L28,33 L40.0011761,33 L40,45 L45,45 L45,30.5 Z" fill="#FFFFFF"></path>
            </g>
        </g>
    </g>
</svg>